{"title":"A Deadly Adoption {2015} HDTV X264 AC3-MRG","uid":12051601,"size":695600087,"categoryP":"video","categoryS":"movies","magnet":"?xt=urn:btih:5aa546a279640402483e631b2e4819ecfc5b7498&amp;dn=A+Deadly+Adoption+%7B2015%7D+HDTV+X264+AC3-MRG&amp;tr=udp%3A%2F%2Ftracker.openbittorrent.com%3A80&amp;tr=udp%3A%2F%2Fopen.demonii.com%3A1337&amp;tr=udp%3A%2F%2Ftracker.coppersurfer.tk%3A6969&amp;tr=udp%3A%2F%2Fexodus.desync.com%3A6969","seeders":17,"leechers":4,"uploader":"SaM","files":8,"time":1435008638,"description":"A Deadly Adoption {2015} HDTV X264 AC3-MRG\n\nFormat                      : Matroska\nFormat version              : Version 2\nFile size                   : 662 MiB\nDuration                    : 1h 23mn\nOverall bit rate            : 1 102 Kbps\n\nVideo\nID                          : 1\nFormat                      : AVC\nFormat/Info                 : Advanced Video Codec\nFormat profile              : &lt;a class=&quot;__cf_email__&quot; href=&quot;/cdn-cgi/l/email-protection&quot; data-cfemail=&quot;a1e9c8c6c9e1ed928f90&quot;&gt;[email&amp;#160;protected]&lt;/a&gt;&lt;script data-cfhash='f9e31' type=&quot;text/javascript&quot;&gt;\n/* &lt;![CDATA[ */!function(){try{var t=&quot;currentScript&quot;in document?document.currentScript:function(){for(var t=document.getElementsByTagName(&quot;script&quot;),e=t.length;e--;)if(t[e].getAttribute(&quot;data-cfhash&quot;))return t[e]}();if(t&amp;&amp;t.previousSibling){var e,r,n,i,c=t.previousSibling,a=c.getAttribute(&quot;data-cfemail&quot;);if(a){for(e=&quot;&quot;,r=parseInt(a.substr(0,2),16),n=2;a.length-n;n+=2)i=parseInt(a.substr(n,2),16)^r,e+=String.fromCharCode(i);e=document.createTextNode(e),c.parentNode.replaceChild(e,c)}t.parentNode.removeChild(t);}}catch(u){}}()/* ]]&gt; */&lt;/script&gt;\nFormat settings, CABAC      : Yes\nFormat settings, ReFrames   : 5 frames\nCodec ID                    : V_MPEG4/ISO/AVC\nDuration                    : 1h 23mn\nBit rate                    : 856 Kbps\nWidth                       : 720 pixels\nHeight                      : 404 pixels\nDisplay aspect ratio        : 16:9\nFrame rate mode             : Constant\nFrame rate                  : 23.976 fps\nColor space                 : YUV\nChroma subsampling          : 4:2:0\nBit depth                   : 8 bits\nScan type                   : Progressive\nBits/(Pixel*Frame)          : 0.123\nStream size                 : 514 MiB (78%)\nWriting library             : x264 core \n\nAudio\nID                          : 2\nFormat                      : AC-3\nFormat/Info                 : Audio Coding 3\nMode extension              : CM (complete main)\nFormat settings, Endianness : Big\nCodec ID                    : A_AC3\nDuration                    : 1h 23mn\nBit rate mode               : Constant\nBit rate                    : 224 Kbps\nChannel(s)                  : 2 channels\nChannel positions           : Front: L R\nSampling rate               : 48.0 KHz\nCompression mode            : Lossy\nDelay relative to video     : 13ms\nStream size                 : 135 MiB (20%)\nLanguage                    : unknown\nDefault                     : Yes\nForced                      : \n &lt;a href=&quot;\nhttp://extraimago.com/image/sTO&quot; rel=&quot;nofollow&quot; target=&quot;_NEW&quot;&gt;\nhttp://extraimago.com/image/sTO&lt;/a&gt; &lt;a href=&quot;\nhttp://extraimago.com/image/sTE&quot; rel=&quot;nofollow&quot; target=&quot;_NEW&quot;&gt;\nhttp://extraimago.com/image/sTE&lt;/a&gt; &lt;a href=&quot;\nhttp://extraimago.com/image/sT1&quot; rel=&quot;nofollow&quot; target=&quot;_NEW&quot;&gt;\nhttp://extraimago.com/image/sT1&lt;/a&gt; &lt;a href=&quot;\nhttp://extraimago.com/image/sTc&quot; rel=&quot;nofollow&quot; target=&quot;_NEW&quot;&gt;\nhttp://extraimago.com/image/sTc&lt;/a&gt;","torrent":{"xt":"urn:btih:5aa546a279640402483e631b2e4819ecfc5b7498","amp;dn":"A+Deadly+Adoption+%7B2015%7D+HDTV+X264+AC3-MRG","amp;tr":["udp%3A%2F%2Ftracker.openbittorrent.com%3A80","udp%3A%2F%2Fopen.demonii.com%3A1337","udp%3A%2F%2Ftracker.coppersurfer.tk%3A6969","udp%3A%2F%2Fexodus.desync.com%3A6969"],"infoHash":"5aa546a279640402483e631b2e4819ecfc5b7498","infoHashBuffer":{"type":"Buffer","data":[90,165,70,162,121,100,4,2,72,62,99,27,46,72,25,236,252,91,116,152]},"announce":[],"urlList":[]}}